# This file uses centimeters as units for non-parametric coordinates.

mtllib Arch.mtl
g default
v -7.014656 0.394755 1.009901
v -7.014656 6.033679 1.009901
v -7.014656 6.033679 -1.009901
v -7.014656 0.394755 -1.009901
v -4.996167 6.033679 -1.009901
v -4.996167 0.394755 -1.009901
v -4.996167 0.394755 1.009901
v -4.996167 6.033679 1.009901
v -2.997700 6.033679 -1.009901
v -2.753337 2.481306 -1.009901
v -2.753337 2.481306 1.009901
v -2.997700 6.033679 1.009901
v -0.999233 6.033679 -1.009901
v -0.999233 3.538155 -1.009901
v -0.999233 3.538155 1.009901
v -0.999233 6.033679 1.009901
v 0.987408 6.033679 -1.009901
v 0.987408 3.538155 -1.009901
v 0.987408 3.538155 1.009901
v 0.987408 6.033679 1.009901
v 3.009525 6.033679 -1.009901
v 2.765162 2.481306 -1.009901
v 2.765162 2.481305 1.009901
v 3.009525 6.033679 1.009901
v 5.007991 6.033679 -1.009901
v 5.007992 0.394755 -1.009901
v 5.007992 0.394755 1.009901
v 5.007991 6.033679 1.009901
v 7.018283 6.033679 -1.009901
v 7.018283 0.394755 -1.009901
v 7.018283 0.394755 1.009901
v 7.018283 6.033679 1.009901
v -7.014656 7.470694 0.710380
v -4.996167 7.470694 0.710380
v -4.996167 7.470694 -0.710380
v -7.014656 7.470694 -0.710380
v -2.997700 7.470694 0.710380
v -2.997700 7.470694 -0.710380
v -0.999233 7.470694 0.710380
v -0.999233 7.470694 -0.710380
v 0.987408 7.470694 0.710380
v 0.987408 7.470694 -0.710380
v 3.009525 7.470694 0.710380
v 3.009525 7.470694 -0.710380
v 5.007991 7.470694 0.710380
v 5.007991 7.470694 -0.710380
v 7.018283 7.470694 0.710380
v 7.018283 7.470694 -0.710380
v -0.005913 6.033679 1.009901
v -0.005913 6.033679 -1.009901
v -0.005913 3.736681 -1.009901
v -0.005913 3.736681 1.009901
v 4.026496 6.033679 1.009901
v 4.026496 6.033679 -1.009901
v 4.298023 0.394755 -1.009901
v 4.298023 0.394755 1.009901
v -3.991021 6.033679 1.009901
v -3.991021 6.033679 -1.009901
v -4.189921 0.394755 -1.009901
v -4.189921 0.394755 1.009901
v -2.004379 6.033679 -1.009901
v -2.004379 3.196028 -1.009901
v -2.004379 3.196028 1.009901
v -2.004379 6.033679 1.009901
v -2.004379 7.470694 0.710380
v -2.004379 7.470694 -0.710380
v 2.016204 6.033679 -1.009901
v 2.016204 3.189884 -1.009901
v 2.016204 3.189884 1.009901
v 2.016204 6.033679 1.009901
v 2.016204 7.470694 0.710380
v 2.016204 7.470694 -0.710380
vt 0.273591 0.666049
vt 0.572188 0.664845
vt 0.186837 0.747792
vt 0.393087 0.183446
vt 0.755376 0.281154
vt 0.246412 0.183466
vt 0.089825 0.000118
vt 0.922508 0.450634
vt 0.353410 0.994539
vt 0.637197 0.517054
vt 0.187738 0.191265
vt 0.636729 0.664838
vt 0.991829 0.000000
vt 0.283503 0.994862
vt 0.720339 0.517095
vt 0.264445 0.288118
vt 0.719872 0.664880
vt 0.721599 0.664882
vt 0.214010 0.995183
vt 0.773626 0.517121
vt 0.351593 0.288234
vt 0.773158 0.664906
vt 0.331479 0.516667
vt 0.143276 0.995510
vt 0.857066 0.517163
vt 0.429818 0.191588
vt 0.856598 0.664947
vt 0.902455 0.000000
vt 0.073370 0.995833
vt 0.887841 0.395481
vt 0.528677 0.000704
vt 0.983777 0.225332
vt 0.571577 0.783849
vt 0.808024 0.395478
vt 0.723994 0.404527
vt 0.733042 0.488557
vt 0.918616 0.395481
vt 0.934256 0.485504
vt 0.755376 0.000000
vt 0.198692 0.769633
vt 0.817412 0.493654
vt 0.650037 0.759805
vt 0.917352 0.395481
vt 0.243116 0.516548
vt 0.229654 0.261004
vt 0.759026 0.236316
vt 0.368505 0.183468
vt 0.720319 0.281154
vt 0.723994 0.725691
vt 0.825197 0.795993
vt 0.747809 0.508629
vt 0.571577 0.664807
vt 0.307453 0.516631
vt 0.248757 0.995023
vt 0.746982 0.517108
vt 0.307974 0.306350
vt 0.746515 0.664893
vt 0.484342 0.516867
vt 0.107703 0.995675
vt 0.933334 0.395481
vt 0.497533 0.000662
vt 0.132638 0.516398
vt 0.388156 0.994379
vt 0.494807 0.516984
vt 0.125193 0.000165
vt 0.494340 0.664768
vt 0.191317 0.663544
vt 0.687716 0.517079
vt 0.220430 0.256738
vt 0.687249 0.664863
vt 0.685607 0.664882
vt 0.867087 0.395481
vt 0.191317 0.516548
vt 0.674182 0.456516
vt 0.806928 0.517138
vt 0.396802 0.256411
vt 0.806461 0.664922
vt 0.831998 0.000000
vt 0.300298 0.183468
vt 0.670498 0.282447
vt 0.176485 0.754786
vt 0.149903 0.694967
vt 0.317128 0.754656
vt 0.282153 0.783760
vt 0.392064 0.517337
vt 0.342940 0.694075
vt 1.000000 0.517233
vt 0.999533 0.665018
vt 0.247514 0.800714
vt 0.212661 0.784081
vt 0.396157 0.516749
vt 0.439731 0.516807
vt 0.219786 0.516514
vt 0.263879 0.516573
vt 0.947700 0.000000
vt 0.176212 0.516456
vt 0.933334 0.236316
vt 0.887841 0.236316
vt 0.959421 0.225332
vt 0.527398 0.516924
vt 0.288352 0.516667
vt 0.351027 0.516689
vt 0.616863 0.000821
vt 0.615583 0.517042
vt 0.088545 0.516339
vt 0.245423 0.000020
vt 0.186837 0.000027
vt 0.001280 0.000000
vt 0.000000 0.516221
vt 0.178023 0.995350
vt 0.934185 0.378506
vt 0.140128 0.663544
vt 0.959421 0.378506
vt 0.494340 0.783849
vt 0.288352 0.649368
vt 0.622582 0.457855
vt 0.003050 0.996158
vt 0.493923 0.993890
vt 0.318663 0.994700
vt 0.245224 0.649368
vt 0.423316 0.994216
vt 0.947700 0.225332
vt 0.095155 0.518709
vt 0.070320 0.518824
vt 0.000000 0.519149
vt 0.420266 0.517206
vt 0.187826 0.183473
vt 0.490873 0.516880
vt 0.457998 0.000000
vt 0.983777 0.378506
vt 0.934185 0.225332
vt 0.746169 0.759696
vt 0.983833 0.665010
vt 0.331479 0.649368
vt 0.245224 0.516667
vt 0.456056 0.025869
vt 0.727666 0.455140
vt 0.991829 0.225332
vt 0.903046 0.000000
vt 0.903046 0.225332
vt 0.257954 0.771396
vt 0.618898 0.000000
vt 0.618898 0.281154
vt 0.271086 0.750298
vt 0.881438 0.795993
vt 0.806917 0.502265
vt 0.817072 0.479509
vt 0.881438 0.702906
vt 0.759026 0.395481
vt 0.759026 0.236316
vt 0.189343 0.663543
vt 0.392099 0.000000
vt 0.448908 0.022074
vt 0.403284 0.023988
vt 0.393136 0.002721
vt 0.825197 0.702906
vt 0.660012 0.794640
vt 0.727632 0.794306
vt 0.724003 0.455224
vt 0.650037 0.760170
vt 0.962610 0.697903
vt 0.851023 0.702906
vt 0.825197 0.672123
vt 0.759026 0.000000
vt 0.243116 0.663544
vt 0.393136 0.023721
vt 0.713670 0.489627
vt 0.642637 0.493171
vt 0.626683 0.460179
vt 0.650037 0.664882
vt 0.649823 0.779303
vt 0.988006 0.483418
vt 0.998921 0.447669
vt 0.649823 0.664845
vt 0.402035 0.044368
vt 0.446294 0.045879
vt 0.831998 0.236316
vt 0.902455 0.236316
vt 0.867087 0.493654
vt 0.917352 0.493654
vt 0.685607 0.759805
vt 0.721599 0.759805
vt 0.494340 0.664807
vt 0.824815 0.725691
vt 0.723994 0.664932
vt 0.824815 0.664932
vt 0.618898 0.283785
vt 0.229654 0.183468
vt 0.140128 0.516548
vt 0.817412 0.395481
vt 0.918616 0.448067
vt 0.988213 0.448067
vt 0.572189 0.779303
vt 0.988213 0.395481
vt 0.300298 0.261004
vt 0.368505 0.261004
vn 0.000000 0.000000 1.000000
vn 0.000000 -0.000000 1.000000
vn 0.000000 -0.000000 1.000000
vn 0.000000 0.000000 1.000000
vn -0.000000 1.000000 0.000000
vn -0.000000 1.000000 0.000000
vn -0.000000 1.000000 0.000000
vn -0.000000 1.000000 0.000000
vn 0.000000 0.000000 -1.000000
vn 0.000000 -0.000000 -1.000000
vn 0.000000 -0.000000 -1.000000
vn 0.000000 0.000000 -1.000000
vn 0.000000 -1.000000 0.000000
vn 0.000000 -1.000000 0.000000
vn 0.000000 -1.000000 0.000000
vn 0.000000 -1.000000 0.000000
vn -1.000000 0.000000 0.000000
vn -1.000000 0.000000 0.000000
vn -1.000000 0.000000 0.000000
vn -1.000000 0.000000 0.000000
vn 0.000000 -0.000000 -1.000000
vn 0.000000 -0.000000 -1.000000
vn 0.681139 -0.732155 0.000000
vn 0.681139 -0.732155 0.000000
vn 0.000000 -0.000000 1.000000
vn 0.000000 -0.000000 1.000000
vn 0.000000 1.000000 0.000000
vn 0.000000 1.000000 0.000000
vn 0.000000 1.000000 0.000000
vn 0.000000 1.000000 0.000000
vn 0.000000 -0.000000 -1.000000
vn 0.000000 0.000000 -1.000000
vn 0.000000 0.000000 -1.000000
vn 0.000000 -0.000000 -1.000000
vn 0.788427 -0.615128 0.000000
vn 0.788427 -0.615128 0.000000
vn 0.516070 -0.856546 0.000000
vn 0.516070 -0.856546 0.000000
vn 0.000000 -0.000000 1.000000
vn 0.000000 -0.000000 1.000000
vn -0.000000 0.000000 1.000000
vn -0.000000 0.000000 1.000000
vn 0.000000 1.000000 0.000000
vn 0.000000 1.000000 0.000000
vn 0.000000 1.000000 0.000000
vn 0.000000 1.000000 0.000000
vn 0.000000 0.000000 -1.000000
vn 0.000000 0.000000 -1.000000
vn 0.000000 0.000000 -1.000000
vn 0.000000 0.000000 -1.000000
vn 0.261146 -0.965299 0.000000
vn 0.261146 -0.965299 0.000000
vn 0.000000 -1.000000 0.000000
vn 0.000000 -1.000000 0.000000
vn 0.000000 0.000000 1.000000
vn -0.000000 0.000000 1.000000
vn 0.000000 0.000000 1.000000
vn -0.000000 0.000000 1.000000
vn 0.000000 1.000000 0.000000
vn 0.000000 1.000000 0.000000
vn 0.000000 1.000000 0.000000
vn 0.000000 1.000000 0.000000
vn -0.000000 -0.000000 -1.000000
vn 0.000000 0.000000 -1.000000
vn 0.000000 0.000000 -1.000000
vn -0.000000 -0.000000 -1.000000
vn -0.261033 -0.965330 -0.000000
vn -0.261033 -0.965330 -0.000000
vn -0.511006 -0.859577 -0.000000
vn -0.511006 -0.859577 -0.000000
vn 0.000000 -0.000000 1.000000
vn 0.000000 -0.000000 1.000000
vn -0.000000 0.000000 1.000000
vn 0.000000 0.000000 1.000000
vn 0.000000 1.000000 0.000000
vn 0.000000 1.000000 0.000000
vn 0.000000 1.000000 0.000000
vn 0.000000 1.000000 0.000000
vn 0.000000 0.000000 -1.000000
vn 0.000000 -0.000000 -1.000000
vn 0.000000 -0.000000 -1.000000
vn 0.000000 0.000000 -1.000000
vn -0.774650 -0.632390 -0.000000
vn -0.774650 -0.632390 -0.000000
vn -0.681138 -0.732155 -0.000000
vn -0.681138 -0.732155 -0.000000
vn -0.000000 0.000000 1.000000
vn -0.000000 0.000000 1.000000
vn -0.000000 -0.000000 1.000000
vn -0.000000 -0.000000 1.000000
vn 0.000000 1.000000 0.000000
vn 0.000000 1.000000 0.000000
vn -0.000000 1.000000 0.000000
vn -0.000000 1.000000 0.000000
vn -0.000000 -0.000000 -1.000000
vn -0.000000 0.000000 -1.000000
vn -0.000000 0.000000 -1.000000
vn -0.000000 -0.000000 -1.000000
vn 0.000000 -1.000000 -0.000000
vn 0.000000 -1.000000 -0.000000
vn 0.000000 -1.000000 0.000000
vn 0.000000 -1.000000 0.000000
vn -0.000000 -0.000000 1.000000
vn -0.000000 -0.000000 1.000000
vn -0.000000 0.000000 1.000000
vn -0.000000 0.000000 1.000000
vn 0.000000 1.000000 0.000000
vn 0.000000 1.000000 0.000000
vn 0.000000 1.000000 0.000000
vn 0.000000 1.000000 0.000000
vn 1.000000 0.000000 0.000000
vn 1.000000 0.000000 0.000000
vn 1.000000 0.000000 0.000000
vn 1.000000 0.000000 0.000000
vn 0.000000 0.204048 0.978961
vn 0.000000 0.204048 0.978961
vn 0.000000 0.204048 0.978961
vn 0.000000 0.204048 0.978961
vn 1.000000 0.000000 0.000000
vn 1.000000 0.000000 0.000000
vn 1.000000 0.000000 0.000000
vn 1.000000 0.000000 0.000000
vn 0.000000 0.204048 -0.978961
vn 0.000000 0.204048 -0.978961
vn 0.000000 0.204048 -0.978961
vn 0.000000 0.204048 -0.978961
vn -1.000000 0.000000 0.000000
vn -1.000000 0.000000 0.000000
vn -1.000000 0.000000 0.000000
vn -1.000000 0.000000 0.000000
vn -1.000000 0.000000 0.000000
vn -1.000000 0.000000 0.000000
vn -1.000000 0.000000 0.000000
vn -1.000000 0.000000 0.000000
vn 0.000000 0.204048 0.978961
vn 0.000000 0.204048 0.978961
vn 0.000000 0.204048 0.978961
vn 0.000000 0.204048 0.978961
vn 1.000000 0.000000 0.000000
vn 1.000000 0.000000 0.000000
vn 1.000000 0.000000 0.000000
vn 1.000000 0.000000 0.000000
vn 0.000000 0.204048 -0.978961
vn 0.000000 0.204048 -0.978961
vn 0.000000 0.204048 -0.978961
vn 0.000000 0.204048 -0.978961
vn -1.000000 -0.000000 0.000000
vn -1.000000 -0.000000 0.000000
vn -1.000000 -0.000000 0.000000
vn -1.000000 -0.000000 0.000000
vn 0.000000 0.204048 0.978961
vn 0.000000 0.204048 0.978961
vn 0.000000 0.204048 0.978961
vn 0.000000 0.204048 0.978961
vn 1.000000 -0.000000 0.000000
vn 1.000000 -0.000000 0.000000
vn 1.000000 -0.000000 0.000000
vn 1.000000 -0.000000 0.000000
vn 0.000000 0.204048 -0.978961
vn 0.000000 0.204048 -0.978961
vn 0.000000 0.204048 -0.978961
vn 0.000000 0.204048 -0.978961
vn -1.000000 -0.000000 0.000000
vn -1.000000 -0.000000 0.000000
vn -1.000000 -0.000000 0.000000
vn -1.000000 -0.000000 0.000000
vn 0.000000 0.204048 0.978961
vn 0.000000 0.204048 0.978961
vn 0.000000 0.204048 0.978961
vn 0.000000 0.204048 0.978961
vn 1.000000 -0.000000 0.000000
vn 1.000000 -0.000000 0.000000
vn 1.000000 -0.000000 0.000000
vn 1.000000 -0.000000 0.000000
vn 0.000000 0.204048 -0.978961
vn 0.000000 0.204048 -0.978961
vn 0.000000 0.204048 -0.978961
vn 0.000000 0.204048 -0.978961
vn 0.000000 1.000000 0.000000
vn 0.000000 1.000000 0.000000
vn -0.000000 1.000000 0.000000
vn -0.000000 1.000000 0.000000
vn 0.000000 1.000000 0.000000
vn 0.000000 1.000000 0.000000
vn 0.000000 0.204048 0.978961
vn 0.000000 0.204048 0.978961
vn 0.000000 1.000000 0.000000
vn 0.000000 1.000000 0.000000
vn 0.000000 0.204048 -0.978961
vn 0.000000 0.204048 -0.978961
vn 0.000000 0.204048 0.978961
vn 0.000000 0.204048 0.978961
vn 0.000000 1.000000 0.000000
vn 0.000000 1.000000 0.000000
vn 0.000000 0.204048 -0.978961
vn 0.000000 0.204048 -0.978961
s 1
g pCube1
usemtl lambert7SG
f 1/108/1 7/7/2 8/105/3 2/109/4
s off
f 33/37/5 34/194/6 35/192/7 36/191/8
s 2
f 3/118/9 5/121/10 6/126/11 4/128/12
s 3
f 4/4/13 6/6/14 7/106/15 1/152/16
s off
f 4/151/17 1/1/18 2/144/19 3/3/20
s 2
f 5/121/10 58/63/21 59/85/22 6/126/11
s 3
f 7/106/15 6/6/14 59/127/23 60/107/24
s 1
f 8/105/3 7/7/2 60/65/25 57/62/26
s 4
f 5/140/27 8/139/28 57/95/29 58/122/30
s 2
f 9/9/31 61/119/32 62/83/33 10/86/34
s 3
f 11/12/35 10/10/36 62/68/37 63/70/38
s 1
f 12/96/39 11/11/40 63/69/41 64/93/42
s 6
f 38/41/43 37/190/44 65/72/45 66/179/46
s 2
f 13/14/47 50/54/48 51/89/49 14/84/50
s 3
f 15/17/51 14/15/52 51/55/53 52/57/54
s 1
f 16/94/55 15/16/56 52/56/57 49/53/58
s 8
f 13/120/59 16/135/60 49/101/61 50/115/62
s 2
f 17/19/63 67/110/64 68/81/65 18/90/66
s 3
f 19/22/67 18/20/68 68/75/69 69/77/70
s 1
f 20/102/71 19/21/72 69/76/73 70/91/74
s 10
f 42/45/75 41/188/76 71/79/77 72/195/78
s 2
f 21/24/79 54/59/80 55/123/81 22/82/82
s 3
f 23/27/83 22/25/84 55/87/85 56/88/86
s 1
f 24/92/87 23/26/88 56/61/89 53/58/90
s 12
f 21/111/91 24/131/92 53/99/93 54/113/94
s 2
f 25/29/95 29/117/96 30/125/97 26/124/98
s 3
f 27/98/99 26/30/100 30/149/101 31/150/102
s 1
f 28/100/103 27/31/104 31/103/105 32/104/106
s off
f 46/49/107 45/185/108 47/186/109 48/184/110
f 30/34/111 29/147/112 32/36/113 31/35/114
f 2/2/115 8/174/116 34/171/117 33/193/118
f 8/8/119 5/173/120 35/172/121 34/38/122
f 5/5/123 3/143/124 36/142/125 35/39/126
f 3/3/127 2/144/128 33/141/129 36/40/130
f 9/169/131 12/137/132 37/167/133 38/168/134
s 13
f 12/170/135 64/71/136 65/181/137 37/42/138
s off
f 16/166/139 13/136/140 40/176/141 39/175/142
s 14
f 66/73/143 61/67/144 9/112/145 38/189/146
s off
f 17/163/147 20/133/148 41/161/149 42/162/150
s 15
f 20/164/151 70/78/152 71/177/153 41/46/154
s off
f 24/160/155 21/132/156 44/158/157 43/157/158
s 16
f 72/80/159 67/74/160 17/116/161 42/187/162
s off
f 25/155/163 28/129/164 45/153/165 46/154/166
f 28/156/167 32/148/168 47/145/169 45/50/170
f 32/36/171 29/147/172 48/146/173 47/51/174
f 29/33/175 25/114/176 46/183/177 48/52/178
s 8
f 50/115/62 49/101/61 20/23/179 17/134/180
s 2
f 51/89/49 50/54/48 17/19/63 18/90/66
s 3
f 52/57/54 51/55/53 18/20/68 19/22/67
s 1
f 49/53/58 52/56/57 19/21/72 20/102/71
s 12
f 54/113/94 53/99/93 28/32/181 25/130/182
s 2
f 55/123/81 54/59/80 25/29/95 26/124/98
s 3
f 56/97/86 55/60/85 26/30/100 27/98/99
s 1
f 53/58/90 56/61/89 27/31/104 28/100/103
s 4
f 58/122/30 57/95/29 12/13/183 9/138/184
s 2
f 59/85/22 58/63/21 9/9/31 10/86/34
s 3
f 60/66/24 59/64/23 10/10/36 11/12/35
s 1
f 57/62/26 60/65/25 11/11/40 12/96/39
s 2
f 61/119/32 13/14/47 14/84/50 62/83/33
s 3
f 63/70/38 62/68/37 14/15/52 15/17/51
s 1
f 64/93/42 63/69/41 15/16/56 16/94/55
s 13
f 65/181/137 64/71/136 16/18/185 39/182/186
s 6
f 66/179/46 65/72/45 39/43/187 40/180/188
s 14
f 13/165/189 61/67/144 66/73/143 40/44/190
s 2
f 67/110/64 21/24/79 22/82/82 68/81/65
s 3
f 69/77/70 68/75/69 22/25/84 23/27/83
s 1
f 70/91/74 69/76/73 23/26/88 24/92/87
s 15
f 71/177/153 70/78/152 24/28/191 43/178/192
s 10
f 72/195/78 71/79/77 43/47/193 44/196/194
s 16
f 21/159/195 67/74/160 72/80/159 44/48/196
