# This file uses centimeters as units for non-parametric coordinates.

mtllib Pyramid.mtl
g default
v -6.709757 0.138579 6.709757
v 0.000000 0.138579 6.709757
v 6.709757 0.138579 6.709757
v -0.422275 9.638097 0.422275
v 0.000000 9.638097 0.422276
v 0.422275 9.638097 0.422275
v -0.422276 9.638097 0.000000
v 0.422274 9.638097 0.000000
v -0.422275 9.638097 -0.422275
v 0.000000 9.638097 -0.422276
v 0.422274 9.638097 -0.422274
v -6.709757 0.138579 -6.709757
v 0.000000 0.138579 -6.709757
v 6.709757 0.138579 -6.709757
v -6.709757 0.138579 0.000000
v 0.000000 0.138579 0.000000
v 6.709757 0.138579 0.000000
v -0.249107 9.888152 0.249107
v -0.000000 9.888152 0.249108
v -0.000000 9.888152 -0.000000
v -0.249108 9.888152 -0.000000
v 0.249107 9.888152 0.249107
v 0.249107 9.888152 -0.000000
v -0.000000 9.888152 -0.249108
v -0.249107 9.888152 -0.249107
v 0.249107 9.888152 -0.249107
vt 2.030398 -0.679830
vt 0.667786 -0.116047
vt 1.553074 -0.114983
vt 0.610265 1.386925
vt 0.665980 1.386993
vt 0.586401 0.873893
vt 1.113772 0.959970
vt 0.141437 0.717053
vt 0.644359 0.874014
vt 1.053785 0.961324
vt 0.192208 0.999348
vt 0.130755 1.000095
vt 0.366846 0.268812
vt 0.789145 0.268812
vt -0.804416 -0.646598
vt 0.366846 0.691110
vt 0.789145 0.691110
vt 1.211444 0.691110
vt 0.366846 1.113410
vt 0.789145 1.113409
vt 1.211444 1.113409
vt 1.568562 -0.687624
vt 0.647626 -0.689548
vt 0.124070 -0.636788
vt 1.077234 -0.658309
vt -0.005867 0.569749
vt 0.665932 1.427124
vt -0.005867 0.717053
vt 0.610081 0.915690
vt 0.644272 0.915762
vt 0.141437 0.864357
vt 1.079360 1.003977
vt 0.156495 1.044053
vt 1.148497 -0.670356
vt 0.172040 -0.658477
vt 1.211444 0.268812
vt 0.702318 0.874136
vt 0.253661 0.998600
vt 0.721695 1.387059
vt 1.173759 0.958615
vt -0.273310 -0.691472
vt -0.217502 -0.117110
vt 0.192747 1.043612
vt 0.678463 0.915833
vt 0.288741 0.864357
vt 0.288741 0.717053
vt 1.114748 1.003178
vt 0.228999 1.043171
vt -0.005867 0.864357
vt 0.698799 1.427163
vt 0.288741 0.569749
vt 0.141437 0.569749
vt 0.633065 1.427084
vt 1.150135 1.002379
vn -0.000000 0.551930 0.833890
vn 0.000000 0.551930 0.833890
vn 0.000000 0.551930 0.833890
vn -0.000000 0.551930 0.833890
vn 0.000000 0.551930 0.833890
vn 0.000000 0.551930 0.833890
vn 0.000000 1.000000 -0.000000
vn 0.000000 1.000000 -0.000001
vn 0.000000 1.000000 -0.000000
vn 0.000000 1.000000 0.000000
vn 0.000000 1.000000 -0.000001
vn 0.000000 1.000000 -0.000001
vn 0.000000 1.000000 0.000000
vn 0.000000 1.000000 0.000000
vn 0.000000 1.000000 0.000000
vn -0.000000 0.551930 -0.833890
vn 0.000000 0.551930 -0.833890
vn 0.000000 0.551930 -0.833890
vn -0.000000 0.551930 -0.833890
vn 0.000000 0.551930 -0.833890
vn 0.000000 0.551930 -0.833890
vn 0.000000 -1.000000 0.000000
vn 0.000000 -1.000000 0.000000
vn 0.000000 -1.000000 0.000000
vn 0.000000 -1.000000 0.000000
vn 0.000000 -1.000000 0.000000
vn 0.000000 -1.000000 0.000000
vn 0.000000 -1.000000 0.000000
vn 0.000000 -1.000000 0.000000
vn 0.000000 -1.000000 0.000000
vn 0.833890 0.551930 -0.000000
vn 0.833890 0.551930 0.000000
vn 0.833890 0.551930 0.000000
vn 0.833890 0.551930 -0.000000
vn 0.833890 0.551930 -0.000000
vn 0.833890 0.551930 -0.000000
vn -0.833890 0.551930 -0.000000
vn -0.833890 0.551930 0.000000
vn -0.833890 0.551930 0.000000
vn -0.833890 0.551930 -0.000000
vn -0.833890 0.551930 0.000000
vn -0.833890 0.551930 0.000000
vn -0.000002 0.569330 0.822109
vn -0.000002 0.569329 0.822109
vn -0.000002 0.569329 0.822109
vn -0.000002 0.569329 0.822109
vn -0.822109 0.569330 0.000001
vn -0.822109 0.569330 0.000001
vn -0.822109 0.569330 0.000001
vn -0.822109 0.569330 0.000001
vn 0.000002 0.569330 0.822109
vn 0.000002 0.569330 0.822109
vn 0.000002 0.569330 0.822109
vn 0.000002 0.569330 0.822109
vn 0.822110 0.569329 -0.000001
vn 0.822110 0.569329 -0.000001
vn 0.822110 0.569329 -0.000001
vn 0.822110 0.569329 -0.000001
vn -0.000002 0.569329 -0.822109
vn -0.000002 0.569329 -0.822109
vn -0.000002 0.569329 -0.822109
vn -0.000002 0.569329 -0.822109
vn -0.822109 0.569330 -0.000001
vn -0.822109 0.569330 -0.000001
vn -0.822109 0.569330 -0.000001
vn -0.822109 0.569330 -0.000001
vn 0.822110 0.569329 0.000000
vn 0.822110 0.569329 0.000000
vn 0.822110 0.569329 0.000000
vn 0.822110 0.569329 0.000000
vn 0.000003 0.569330 -0.822109
vn 0.000003 0.569330 -0.822109
vn 0.000003 0.569330 -0.822109
vn 0.000003 0.569330 -0.822109
s 1
g pCube1
usemtl lambert3SG
f 1/42/1 2/2/2 5/5/3 4/4/4
f 2/2/2 3/3/5 6/39/6 5/5/3
s 2
f 18/26/7 19/52/8 20/8/9 21/28/10
f 19/52/8 22/51/11 23/46/12 20/8/9
f 21/28/10 20/8/9 24/31/13 25/49/14
f 20/8/9 23/46/12 26/45/15 24/31/13
s 3
f 9/38/16 10/11/17 13/35/18 12/34/19
f 10/11/17 11/12/20 14/15/21 13/35/18
s 4
f 12/13/22 13/14/23 16/17/24 15/16/25
f 13/14/23 14/36/26 17/18/27 16/17/24
f 15/16/25 16/17/24 2/20/28 1/19/29
f 16/17/24 17/18/27 3/21/30 2/20/28
s 5
f 17/23/31 14/22/32 11/37/33 8/9/34
f 3/41/35 17/23/31 8/9/34 6/6/36
s 6
f 12/24/37 15/25/38 7/7/39 9/10/40
f 15/25/38 1/1/41 4/40/42 7/7/39
s off
f 4/4/43 5/5/44 19/27/45 18/53/46
f 7/7/47 4/40/48 18/54/49 21/47/50
f 5/5/51 6/39/52 22/50/53 19/27/54
f 6/6/55 8/9/56 23/30/57 22/29/58
f 10/11/59 9/38/60 25/48/61 24/43/62
f 9/10/63 7/7/64 21/47/65 25/32/66
f 8/9/67 11/37/68 26/44/69 23/30/70
f 11/12/71 10/11/72 24/43/73 26/33/74
