# This file uses centimeters as units for non-parametric coordinates.

mtllib Wall.mtl
g default
v -7.014656 0.420050 1.009901
v -7.014656 6.033679 1.009901
v -7.014656 6.033679 -1.009901
v -7.014656 0.420050 -1.009901
v -4.996167 6.033679 -1.009901
v -4.996167 0.420050 -1.009901
v -4.996167 0.420050 1.009901
v -4.996167 6.033679 1.009901
v -2.946910 6.033679 -1.009901
v -2.946908 0.420051 -1.009901
v -2.946908 0.420051 1.009901
v -2.946910 6.033679 1.009901
v -0.999233 6.033679 -1.009901
v -0.999233 0.420051 -1.009901
v -0.999233 0.420051 1.009901
v -0.999233 6.033679 1.009901
v 0.987408 6.033679 -1.009901
v 0.987408 0.420051 -1.009901
v 0.987408 0.420051 1.009901
v 0.987408 6.033679 1.009901
v 3.052823 6.033679 -1.009901
v 3.052820 0.420051 -1.009901
v 3.052820 0.420051 1.009901
v 3.052823 6.033679 1.009901
v 5.007991 6.033679 -1.009901
v 5.007992 0.420050 -1.009901
v 5.007992 0.420050 1.009901
v 5.007991 6.033679 1.009901
v 7.018283 6.033679 -1.009901
v 7.018283 0.420050 -1.009901
v 7.018283 0.420050 1.009901
v 7.018283 6.033679 1.009901
v -7.014656 7.470694 0.710380
v -4.996167 7.470694 0.710380
v -4.996167 7.470694 -0.710380
v -7.014656 7.470694 -0.710380
v -2.997700 7.470694 0.710380
v -2.997700 7.470694 -0.710380
v -0.999233 7.470694 0.710380
v -0.999233 7.470694 -0.710380
v 0.987408 7.470694 0.710380
v 0.987408 7.470694 -0.710380
v 3.009525 7.470694 0.710380
v 3.009525 7.470694 -0.710380
v 5.007991 7.470694 0.710380
v 5.007991 7.470694 -0.710380
v 7.018283 7.470694 0.710380
v 7.018283 7.470694 -0.710380
vt 0.619649 0.669743
vt 0.749047 0.545141
vt 0.547527 0.739130
vt 0.661948 0.545141
vt 0.240393 0.762410
vt 0.661948 0.562889
vt 0.589823 0.000000
vt 0.087452 0.776580
vt 0.368933 0.591157
vt 0.661948 0.580908
vt 0.659785 0.000000
vt 0.520911 0.580908
vt 0.544808 0.668533
vt 0.296826 0.591157
vt 0.661948 0.598034
vt 0.726280 0.000000
vt 0.520911 0.598034
vt 0.901072 0.545141
vt 0.223276 0.591157
vt 0.661948 0.615503
vt 0.794104 0.000000
vt 0.520911 0.615503
vt 0.437451 0.695077
vt 0.146810 0.591157
vt 0.661948 0.633664
vt 0.864618 0.000000
vt 0.520911 0.633664
vt 0.746165 0.545141
vt 0.074425 0.591157
vt 0.661948 0.650856
vt 0.931368 0.000000
vt 0.379601 0.591157
vt 0.084224 0.789294
vt 0.464474 0.594062
vt 0.383119 0.591157
vt 0.380227 0.672146
vt 0.749047 0.724133
vt 0.101639 0.802488
vt 0.240393 0.591157
vt 0.557735 0.757382
vt 0.243345 0.801660
vt 0.828895 0.718195
vt 0.336718 0.752858
vt 0.965793 0.545141
vt 0.619770 0.788983
vt 0.665397 0.731170
vt 0.702091 0.731170
vt 0.313553 0.591157
vt 0.901138 0.774241
vt 0.087452 0.776580
vt 0.391551 0.693309
vt 0.084224 0.591157
vt 0.146810 0.000000
vt 0.296826 0.000000
vt 0.368933 0.000000
vt 0.223276 0.000000
vt 0.864618 0.545141
vt 0.726280 0.545141
vt 0.659785 0.545141
vt 0.520911 0.650856
vt 0.931368 0.545141
vt 0.794104 0.545141
vt 1.000000 0.000000
vt 1.000000 0.545141
vt 0.589823 0.545141
vt 0.520911 0.562889
vt 0.520911 0.000000
vt 0.520911 0.545141
vt 0.315588 0.729240
vt 0.901138 0.700159
vt 0.000000 0.789294
vt 0.243345 0.752858
vt 0.000000 0.591157
vt 0.519530 0.591157
vt 0.380227 0.794553
vt 0.444801 0.591157
vt 0.074425 0.000000
vt 0.000000 0.000000
vt 0.444801 0.000000
vt 0.519530 0.000000
vt 0.618211 0.762034
vt 0.379601 0.729240
vt 0.315588 0.591157
vt 0.085295 0.791722
vt 0.904284 0.774240
vt 0.437451 0.794553
vt 0.380227 0.695077
vt 0.997469 0.773252
vt 0.715667 0.788854
vt 0.544808 0.764070
vt 0.463877 0.668533
vt 0.463877 0.764070
vt 0.607618 0.758234
vt 0.167300 0.591157
vt 0.167300 0.762410
vt 0.618443 0.740341
vt 0.166272 0.776580
vt 0.448777 0.695353
vt 0.461581 0.675051
vt 0.166272 0.591157
vt 0.661948 0.668533
vt 0.520911 0.668533
vt 0.548733 0.668532
vt 0.520911 0.545141
vt 0.602889 0.790201
vt 0.526423 0.792403
vt 0.509504 0.765165
vt 0.087452 0.591157
vt 0.012030 0.811391
vt 0.072028 0.813099
vt 0.313553 0.752858
vt 0.000000 0.789293
vt 0.893680 0.795084
vt 0.837976 0.798230
vt 0.825093 0.778713
vt 0.665397 0.545141
vt 0.965793 0.700159
vt 0.931556 0.775956
vt 0.699734 0.804511
vt 0.621580 0.805330
vt 0.604561 0.790020
vt 0.828895 0.545141
vt 0.825444 0.724133
vt 0.172084 0.804323
vt 0.187600 0.779188
vt 0.825444 0.545141
vt 0.942020 0.792352
vt 0.988384 0.790450
vt 0.243345 0.591157
vt 0.702091 0.788983
vt 0.619770 0.731170
vt 0.746165 0.731170
vt 0.901138 0.545141
vt 0.336718 0.801660
vt 0.243345 0.752858
vt 0.901072 0.718195
vt 0.000000 0.591157
vt 0.972876 0.774241
vt 0.901138 0.700159
vt 0.972876 0.700159
vt 0.749047 0.789553
vt 0.821853 0.789553
vt 0.749047 0.724133
vt 0.821853 0.724133
vn 0.000000 0.000000 1.000000
vn 0.000000 0.000000 1.000000
vn 0.000000 0.000000 1.000000
vn 0.000000 0.000000 1.000000
vn -0.000000 1.000000 0.000000
vn -0.000000 1.000000 0.000000
vn -0.000000 1.000000 0.000000
vn -0.000000 1.000000 0.000000
vn 0.000000 0.000000 -1.000000
vn 0.000000 0.000000 -1.000000
vn 0.000000 0.000000 -1.000000
vn 0.000000 0.000000 -1.000000
vn 0.000000 -1.000000 0.000000
vn 0.000000 -1.000000 0.000000
vn 0.000000 -1.000000 0.000000
vn 0.000000 -1.000000 0.000000
vn -1.000000 0.000000 0.000000
vn -1.000000 0.000000 0.000000
vn -1.000000 0.000000 0.000000
vn -1.000000 0.000000 0.000000
vn -0.000000 0.000000 -1.000000
vn -0.000000 0.000000 -1.000000
vn 0.000000 -1.000000 0.000000
vn 0.000000 -1.000000 0.000000
vn -0.000000 0.000000 1.000000
vn -0.000000 0.000000 1.000000
vn 0.000000 1.000000 0.000000
vn 0.000000 1.000000 0.000000
vn 0.000000 1.000000 0.000000
vn 0.000000 1.000000 0.000000
vn -0.000000 0.000000 -1.000000
vn -0.000000 0.000000 -1.000000
vn -0.000000 -1.000000 0.000000
vn -0.000000 -1.000000 0.000000
vn -0.000000 0.000000 1.000000
vn -0.000000 0.000000 1.000000
vn 0.000000 1.000000 0.000000
vn 0.000000 1.000000 0.000000
vn 0.000000 1.000000 0.000000
vn 0.000000 1.000000 0.000000
vn 0.000000 0.000000 -1.000000
vn 0.000000 0.000000 -1.000000
vn 0.000000 -1.000000 0.000000
vn 0.000000 -1.000000 0.000000
vn 0.000000 0.000000 1.000000
vn 0.000000 0.000000 1.000000
vn 0.000000 1.000000 0.000000
vn 0.000000 1.000000 0.000000
vn 0.000000 1.000000 0.000000
vn 0.000000 1.000000 0.000000
vn 0.000000 0.000000 -1.000000
vn 0.000000 0.000000 -1.000000
vn -0.000000 -1.000000 0.000000
vn -0.000000 -1.000000 0.000000
vn 0.000000 0.000000 1.000000
vn 0.000000 0.000000 1.000000
vn 0.000000 1.000000 0.000000
vn 0.000000 1.000000 0.000000
vn 0.000000 1.000000 0.000000
vn 0.000000 1.000000 0.000000
vn -0.000000 0.000000 -1.000000
vn -0.000000 0.000000 -1.000000
vn -0.000000 -1.000000 0.000000
vn -0.000000 -1.000000 0.000000
vn 0.000000 0.000000 1.000000
vn 0.000000 0.000000 1.000000
vn -0.000000 1.000000 0.000000
vn -0.000000 1.000000 0.000000
vn -0.000000 1.000000 0.000000
vn -0.000000 1.000000 0.000000
vn 0.000000 0.000000 -1.000000
vn 0.000000 0.000000 -1.000000
vn 0.000000 -1.000000 0.000000
vn 0.000000 -1.000000 0.000000
vn 0.000000 0.000000 1.000000
vn 0.000000 0.000000 1.000000
vn 0.000000 1.000000 0.000000
vn 0.000000 1.000000 0.000000
vn 0.000000 1.000000 0.000000
vn 0.000000 1.000000 0.000000
vn 1.000000 0.000000 0.000000
vn 1.000000 0.000000 0.000000
vn 1.000000 0.000000 0.000000
vn 1.000000 0.000000 0.000000
vn 0.000000 0.204048 0.978961
vn 0.000000 0.204048 0.978961
vn 0.000000 0.204048 0.978961
vn 0.000000 0.204048 0.978961
vn 1.000000 0.000000 0.000000
vn 1.000000 0.000000 0.000000
vn 1.000000 0.000000 0.000000
vn 1.000000 0.000000 0.000000
vn 0.000000 0.204048 -0.978961
vn 0.000000 0.204048 -0.978961
vn 0.000000 0.204048 -0.978961
vn 0.000000 0.204048 -0.978961
vn -1.000000 0.000000 0.000000
vn -1.000000 0.000000 0.000000
vn -1.000000 0.000000 0.000000
vn -1.000000 0.000000 0.000000
vn -0.999376 -0.035321 0.000000
vn -0.999376 -0.035321 0.000000
vn -0.999376 -0.035321 0.000000
vn -0.999376 -0.035321 0.000000
vn 0.000000 0.204048 0.978961
vn 0.000000 0.204048 0.978961
vn 0.000000 0.204048 0.978961
vn 0.000000 0.204048 0.978961
vn 1.000000 0.000000 0.000000
vn 1.000000 0.000000 0.000000
vn 1.000000 0.000000 0.000000
vn 1.000000 0.000000 0.000000
vn 0.000000 0.204048 -0.978961
vn 0.000000 0.204048 -0.978961
vn 0.000000 0.204048 -0.978961
vn 0.000000 0.204048 -0.978961
vn -1.000000 -0.000000 0.000000
vn -1.000000 -0.000000 0.000000
vn -1.000000 -0.000000 0.000000
vn -1.000000 -0.000000 0.000000
vn 0.000000 0.204048 0.978961
vn 0.000000 0.204048 0.978961
vn 0.000000 0.204048 0.978961
vn 0.000000 0.204048 0.978961
vn 0.999546 0.030117 0.000000
vn 0.999546 0.030117 0.000000
vn 0.999546 0.030117 0.000000
vn 0.999546 0.030117 0.000000
vn 0.000000 0.204048 -0.978961
vn 0.000000 0.204048 -0.978961
vn 0.000000 0.204048 -0.978961
vn 0.000000 0.204048 -0.978961
vn -1.000000 -0.000000 0.000000
vn -1.000000 -0.000000 0.000000
vn -1.000000 -0.000000 0.000000
vn -1.000000 -0.000000 0.000000
vn 0.000000 0.204048 0.978961
vn 0.000000 0.204048 0.978961
vn 0.000000 0.204048 0.978961
vn 0.000000 0.204048 0.978961
vn 1.000000 -0.000000 0.000000
vn 1.000000 -0.000000 0.000000
vn 1.000000 -0.000000 0.000000
vn 1.000000 -0.000000 0.000000
vn 0.000000 0.204048 -0.978961
vn 0.000000 0.204048 -0.978961
vn 0.000000 0.204048 -0.978961
vn 0.000000 0.204048 -0.978961
s 1
g pCube1
usemtl lambert5SG
f 1/67/1 7/7/2 8/65/3 2/68/4
s off
f 33/37/5 34/144/6 35/142/7 36/141/8
s 2
f 3/74/9 5/76/10 6/79/11 4/80/12
s 3
f 4/4/13 6/6/14 7/66/15 1/104/16
s off
f 4/103/17 1/1/18 2/96/19 3/3/20
s 2
f 6/79/11 5/76/10 9/9/21 10/55/22
s 3
f 7/66/15 6/6/14 10/10/23 11/12/24
s 1
f 8/65/3 7/7/2 11/11/25 12/59/26
s off
f 5/92/27 8/91/28 12/13/29 9/90/30
s 2
f 10/55/22 9/9/21 13/14/31 14/54/32
s 3
f 11/12/24 10/10/23 14/15/33 15/17/34
s 1
f 12/59/26 11/11/25 15/16/35 16/58/36
s off
f 38/41/37 37/135/38 39/43/39 40/134/40
s 2
f 14/54/32 13/14/31 17/19/41 18/56/42
s 3
f 15/17/34 14/15/33 18/20/43 19/22/44
s 1
f 16/58/36 15/16/35 19/21/45 20/62/46
s off
f 13/75/47 16/87/48 20/23/49 17/86/50
s 2
f 18/56/42 17/19/41 21/24/51 22/53/52
s 3
f 19/22/44 18/20/43 22/25/53 23/27/54
s 1
f 20/62/46 19/21/45 23/26/55 24/57/56
s off
f 42/45/57 41/131/58 43/47/59 44/130/60
s 2
f 22/53/52 21/24/51 25/29/61 26/77/62
s 3
f 23/27/54 22/25/53 26/30/63 27/60/64
s 1
f 24/57/56 23/26/55 27/31/65 28/61/66
s off
f 21/69/67 24/83/68 28/32/69 25/82/70
s 2
f 25/29/61 29/73/71 30/78/72 26/77/62
s 3
f 27/60/64 26/30/63 30/101/73 31/102/74
s 1
f 28/61/66 27/31/65 31/63/75 32/64/76
s off
f 46/49/77 45/139/78 47/140/79 48/138/80
f 30/34/81 29/99/82 32/36/83 31/35/84
f 2/2/85 8/126/86 34/123/87 33/143/88
f 8/8/89 5/125/90 35/124/91 34/38/92
f 5/5/93 3/95/94 36/94/95 35/39/96
f 3/3/97 2/96/98 33/93/99 36/40/100
f 9/121/101 12/89/102 37/119/103 38/120/104
f 37/42/105 12/122/106 16/18/107 39/136/108
f 16/118/109 13/88/110 40/128/111 39/127/112
f 9/70/113 38/133/114 40/44/115 13/117/116
f 17/115/117 20/85/118 41/113/119 42/114/120
f 41/46/121 20/116/122 24/28/123 43/132/124
f 24/112/125 21/84/126 44/110/127 43/109/128
f 17/72/129 42/129/130 44/48/131 21/111/132
f 25/107/133 28/81/134 45/105/135 46/106/136
f 28/108/137 32/100/138 47/97/139 45/50/140
f 32/36/141 29/99/142 48/98/143 47/51/144
f 29/33/145 25/71/146 46/137/147 48/52/148
